<svg width="60" height="60" viewBox="0 0 60 60" fill="none" xmlns="http://www.w3.org/2000/svg">
<path fill-rule="evenodd" clip-rule="evenodd" d="M60 30C60 24.0666 58.2405 18.2664 54.9441 13.3329C51.6477 8.39943 46.9623 4.55426 41.4805 2.28363C35.9987 0.0129984 29.9667 -0.581102 24.1473 0.576455C18.3279 1.73401 12.9824 4.59123 8.78681 8.78681C4.59123 12.9824 1.73401 18.3279 0.576455 24.1473C-0.581102 29.9667 0.0129984 35.9987 2.28363 41.4805C4.55426 46.9623 8.39943 51.6477 13.3329 54.9441C18.2664 58.2405 24.0666 60 30 60C37.9565 60 45.5871 56.8393 51.2132 51.2132C56.8393 45.5871 60 37.9565 60 30ZM42.3491 14.7414H29.2026C28.93 14.7469 28.67 14.8577 28.4772 15.0505C28.2844 15.2433 28.1736 15.5032 28.1681 15.7759V27.4354C28.1347 28.1309 27.8333 28.7866 27.327 29.2647C26.8207 29.7429 26.149 30.0064 25.4526 30H15.431C15.2256 29.9961 15.0236 30.0534 14.8509 30.1648C14.6782 30.2761 14.5425 30.4363 14.4612 30.625C14.3812 30.8172 14.3611 31.029 14.4034 31.2327C14.4457 31.4365 14.5485 31.6228 14.6983 31.7673L27.8664 44.9569C28.0622 45.1488 28.325 45.257 28.5992 45.2586H40.9483C41.1562 45.2608 41.3599 45.2003 41.5329 45.0849C41.7059 44.9696 41.8402 44.8048 41.9181 44.6121C41.9994 44.4237 42.0203 44.2148 41.9778 44.014C41.9354 43.8133 41.8317 43.6307 41.681 43.4914L28.75 30.5604L28.5129 30.3017L28.1897 30C32.0168 29.9572 35.689 28.4816 38.4818 25.8644C41.2745 23.2472 42.985 19.6784 43.2759 15.8621C43.3009 15.7278 43.2986 15.5899 43.2689 15.4565C43.2393 15.3232 43.183 15.1972 43.1035 15.0862C43.011 14.9765 42.8955 14.8887 42.765 14.8291C42.6346 14.7695 42.4926 14.7395 42.3491 14.7414ZM30 2.62932C35.4134 2.62932 40.7053 4.23459 45.2064 7.24212C49.7074 10.2496 53.2156 14.5244 55.2872 19.5257C57.3589 24.527 57.9009 30.0304 56.8448 35.3398C55.7887 40.6492 53.1819 45.5261 49.354 49.354C45.5261 53.1819 40.6492 55.7887 35.3398 56.8448C30.0304 57.9009 24.527 57.3589 19.5257 55.2872C14.5244 53.2156 10.2496 49.7074 7.24212 45.2064C4.23459 40.7053 2.62932 35.4134 2.62932 30C2.62649 26.4048 3.33252 22.8444 4.70702 19.5224C6.08152 16.2003 8.09752 13.1819 10.6397 10.6397C13.1819 8.09752 16.2003 6.08152 19.5224 4.70702C22.8444 3.33252 26.4048 2.62649 30 2.62932Z" fill="#040114"/>
</svg>
