<svg width="175" height="50" viewBox="0 0 175 50" fill="none" xmlns="http://www.w3.org/2000/svg">
<g clip-path="url(#clip0_20_1671)">
<mask id="mask0_20_1671" style="mask-type:luminance" maskUnits="userSpaceOnUse" x="0" y="0" width="175" height="50">
<path d="M174.194 0H0V50H174.194V0Z" fill="white"/>
</mask>
<g mask="url(#mask0_20_1671)">
<path d="M170.021 33.6071V34.1428H169.112V36.9463H168.434V34.1428H167.614V33.6071H170.021Z" fill="white"/>
<path d="M174.194 33.6071V36.9463H173.516V34.7678L172.607 36.9463H172.089L171.18 34.7678V36.9463H170.502V33.6071H171.269L172.357 36.0892L173.427 33.6071H174.194Z" fill="white"/>
<path fill-rule="evenodd" clip-rule="evenodd" d="M107.344 19.3214C106.511 19.678 105.759 20.2005 105.133 20.8571C104.488 21.4889 103.973 22.2412 103.618 23.0714C103.273 23.9226 103.091 24.8314 103.083 25.75C103.054 26.6751 103.206 27.597 103.528 28.4643C103.843 29.3117 104.322 30.0885 104.937 30.75C105.529 31.428 106.25 31.9805 107.059 32.375C107.862 32.7431 108.727 32.9552 109.609 33C110.54 33.0642 111.474 32.9114 112.337 32.5536C113.202 32.1917 113.98 31.65 114.619 30.9643C115.278 30.2713 115.798 29.4593 116.153 28.5714C116.495 27.6713 116.659 26.7129 116.634 25.75C116.626 24.8487 116.444 23.9575 116.099 23.125C115.749 22.29 115.247 21.5271 114.619 20.875C114.03 20.2349 113.312 19.7261 112.514 19.3815C111.715 19.037 110.853 18.8644 109.983 18.875C109.083 18.8531 108.187 19.0046 107.344 19.3214ZM121.128 25.9286V37.0179H116.706V35.0536C114.706 36.7106 112.166 37.5692 109.573 37.4643C108.123 37.4088 106.695 37.0817 105.365 36.5C104.024 35.8857 102.813 35.0187 101.799 33.9464C100.784 32.8743 99.979 31.6203 99.4272 30.25C98.8862 28.8804 98.6137 27.4193 98.6248 25.9464C98.6033 24.4155 98.8945 22.8963 99.4807 21.4821C100.06 20.0657 100.914 18.7788 101.995 17.6964C103.052 16.5852 104.335 15.7144 105.757 15.1429C107.167 14.5799 108.682 14.3301 110.197 14.4107C111.667 14.4493 113.115 14.7769 114.459 15.375C115.81 15.9885 117.023 16.8693 118.025 17.9643C119.066 19.0163 119.885 20.2673 120.432 21.6429C120.937 23.0135 121.173 24.4685 121.128 25.9286ZM78.4576 22.2321C78.2356 22.6335 78.0449 23.0514 77.887 23.4821H91.0287C90.8811 23.0616 90.6961 22.6552 90.4759 22.2679C90.0777 21.5945 89.5717 20.9912 88.9781 20.4821C87.7367 19.4335 86.1621 18.8635 84.5381 18.875C82.8924 18.8203 81.2829 19.3661 80.009 20.4107C79.3804 20.913 78.8538 21.5313 78.4576 22.2321ZM61.2861 23.4286H65.9758V37H61.304V23.4286H65.9758C65.9757 22.2571 66.4392 21.1334 67.2647 20.3034C68.0901 19.4734 69.2103 19.0047 70.3801 19H71.5569V14.2857H70.3801C69.183 14.2833 67.9973 14.5186 66.8916 14.9778C65.7858 15.4371 64.782 16.1114 63.938 16.9615C63.094 17.8117 62.4267 18.821 61.9746 19.931C61.5225 21.041 61.2945 22.2298 61.304 23.4286H61.2861ZM126.014 7.78571H129.58V37.0179H125.122V7.78571H126.014ZM146.609 28.5714C146.933 29.4234 147.417 30.2054 148.035 30.875C148.624 31.5443 149.339 32.0905 150.139 32.4821C150.936 32.8448 151.797 33.0451 152.671 33.0714C153.595 33.1347 154.522 32.9882 155.382 32.6429C156.242 32.2735 157.013 31.7258 157.646 31.0357C158.338 30.3279 158.883 29.4905 159.251 28.5714C159.595 27.6843 159.759 26.7371 159.733 25.7857C159.693 24.9019 159.5 24.0317 159.162 23.2143C158.81 22.3756 158.302 21.6119 157.664 20.9643C157.078 20.3226 156.368 19.8063 155.578 19.4464C154.789 19.1108 153.938 18.9465 153.081 18.9643C152.183 18.9374 151.29 19.1018 150.46 19.4464C149.631 19.8097 148.88 20.3313 148.249 20.9821C147.592 21.6141 147.07 22.3736 146.716 23.2143C146.369 24.0588 146.188 24.962 146.181 25.875C146.158 26.7924 146.303 27.7062 146.609 28.5714ZM163.406 21.7143C164.523 24.5236 164.523 27.655 163.406 30.4643C162.801 31.8799 161.929 33.1653 160.838 34.25C159.719 35.3404 158.382 36.1804 156.915 36.7143C155.516 37.2719 154.015 37.5275 152.511 37.4643C150.314 37.381 148.188 36.6621 146.391 35.3944C144.593 34.1268 143.201 32.3648 142.383 30.3214C141.289 27.4952 141.289 24.362 142.383 21.5357C142.976 20.1185 143.843 18.8322 144.933 17.75C145.995 16.641 147.276 15.7653 148.695 15.1786C150.094 14.621 151.595 14.3654 153.099 14.4286C154.572 14.4641 156.021 14.7983 157.361 15.4107C158.71 16.0272 159.923 16.9075 160.927 18C161.976 19.0465 162.817 20.2826 163.406 21.6429V21.7143ZM134.697 14.8929H138.264V37.0179H133.735V14.8929H134.697ZM134.697 7.75H138.264V11.5H133.735V7.78571L134.697 7.75ZM88.3362 31.9643C88.9844 31.536 89.5419 30.9838 89.9766 30.3393H95.0229C94.6703 31.2446 94.1964 32.0976 93.6142 32.875C92.9203 33.826 92.0773 34.6582 91.1178 35.3393C90.1687 36.0168 89.1226 36.5466 88.0152 36.9107C85.4814 37.7634 82.7284 37.6938 80.2408 36.7143C78.9143 36.1056 77.7066 35.265 76.6745 34.2321C75.5796 33.1773 74.696 31.9226 74.0711 30.5357C73.1307 28.3903 72.8692 26.0079 73.3219 23.7091C73.7746 21.4104 74.9198 19.3057 76.6032 17.6786C77.7153 16.5411 79.0511 15.6472 80.5261 15.0536C81.958 14.4786 83.4961 14.2168 85.0374 14.2857C86.4673 14.3819 87.8655 14.7517 89.1564 15.375C90.4937 16.0039 91.7029 16.8758 92.7226 17.9464C93.7167 18.9807 94.509 20.192 95.0585 21.5179C95.5783 22.7684 95.845 24.1098 95.8431 25.4643V27.8393H77.7622C77.8841 28.3577 78.0636 28.8608 78.2972 29.3393C78.6951 30.0851 79.2271 30.751 79.8663 31.3036C80.5099 31.8755 81.2535 32.3235 82.0595 32.625C82.8734 32.9331 83.7397 33.0787 84.6094 33.0536C85.9098 33.0656 87.1858 32.6996 88.2827 32L88.3362 31.9643Z" fill="white"/>
<path fill-rule="evenodd" clip-rule="evenodd" d="M49.6422 25.1428C49.6422 20.2265 48.1865 15.4206 45.4591 11.3329C42.7317 7.24517 38.8552 4.05917 34.3197 2.17779C29.7843 0.296415 24.7936 -0.19584 19.9788 0.763279C15.1639 1.7224 10.7412 4.08981 7.26995 7.56614C3.79865 11.0425 1.43467 15.4716 0.476942 20.2934C-0.480786 25.1152 0.0107545 30.1132 1.88941 34.6552C3.76806 39.1973 6.94944 43.0794 11.0313 45.8108C15.1131 48.5421 19.912 49.9999 24.8211 49.9999C31.4041 49.9999 37.7174 47.3811 42.3723 42.7195C47.0272 38.0578 49.6422 31.7353 49.6422 25.1428ZM35.0384 12.4999H24.1614C23.9358 12.5045 23.7207 12.5963 23.5612 12.756C23.4017 12.9158 23.31 13.1312 23.3055 13.3571V23.0357C23.2777 23.6104 23.0277 24.1517 22.6084 24.545C22.189 24.9384 21.6332 25.1528 21.0587 25.1428H12.7672C12.5957 25.1434 12.4282 25.1945 12.2855 25.2898C12.1428 25.385 12.0313 25.5202 11.9648 25.6785C11.8986 25.8377 11.8819 26.0132 11.9169 26.1821C11.9519 26.3509 12.037 26.5053 12.1609 26.6249L23.0558 37.4999C23.2178 37.6589 23.4353 37.7486 23.6621 37.7499H33.8794C34.0509 37.7494 34.2184 37.6983 34.3611 37.603C34.5038 37.5077 34.6153 37.3725 34.6818 37.2142C34.748 37.055 34.7646 36.8795 34.7297 36.7107C34.6947 36.5418 34.6096 36.3875 34.4857 36.2678L23.7869 25.5535L23.5908 25.3571L23.3233 25.1071C26.4886 25.0675 29.5246 23.8435 31.8343 21.6758C34.1441 19.5081 35.5605 16.5534 35.8052 13.3928C35.8383 13.1739 35.7873 12.9506 35.6625 12.7678C35.5822 12.6829 35.4855 12.6153 35.3781 12.5692C35.2708 12.5232 35.1552 12.4996 35.0384 12.4999ZM24.8211 2.46423C29.3 2.46423 33.6783 3.7943 37.4024 6.28626C41.1265 8.77821 44.029 12.3201 45.743 16.4641C47.457 20.6081 47.9055 25.168 47.0317 29.5672C46.1579 33.9664 44.0011 38.0073 40.834 41.179C37.667 44.3506 33.6319 46.5106 29.2391 47.3856C24.8462 48.2607 20.2929 47.8116 16.155 46.0951C12.017 44.3786 8.48025 41.4718 5.99191 37.7423C3.50357 34.0129 2.17542 29.6282 2.17542 25.1428C2.17308 22.1639 2.75723 19.2139 3.89445 16.4613C5.03167 13.7088 6.69965 11.2078 8.80297 9.10139C10.9063 6.99502 13.4037 5.32462 16.1522 4.18575C18.9008 3.04688 21.8466 2.46188 24.8211 2.46423Z" fill="white"/>
</g>
</g>
<defs>
<clipPath id="clip0_20_1671">
<rect width="174.194" height="50" fill="white"/>
</clipPath>
</defs>
</svg>
