<svg width="185" height="185" viewBox="0 0 185 185" fill="none" xmlns="http://www.w3.org/2000/svg">
<path fill-rule="evenodd" clip-rule="evenodd" d="M184.73 92.73C184.73 41.92 143.54 0.73999 92.74 0.73999C41.93 0.73999 0.75 41.93 0.75 92.73C0.75 143.54 41.94 184.72 92.74 184.72C143.54 184.73 184.73 143.54 184.73 92.73ZM130.61 45.95H90.32C88.56 45.95 87.13 47.38 87.13 49.14V84.91C87.13 89.13 83.26 92.74 78.8 92.74H48.05C46.73 92.74 45.61 93.49 45.1 94.71C44.6 95.93 44.86 97.25 45.79 98.19L86.2 138.6C86.82 139.22 87.58 139.53 88.45 139.53H126.22C127.54 139.53 128.66 138.78 129.17 137.56C129.67 136.34 129.41 135.02 128.48 134.09L88.82 94.43L88.08 93.69L87.13 92.74L87.42 92.75C111.88 92.61 132.05 73.45 133.81 49.39C133.88 48.47 133.59 47.66 132.97 46.99C132.32 46.29 131.53 45.95 130.61 45.95ZM92.73 8.79999C139.09 8.79999 176.66 46.38 176.66 92.73C176.66 139.08 139.08 176.66 92.73 176.66C46.38 176.66 8.8 139.08 8.8 92.73C8.8 46.38 46.38 8.79999 92.73 8.79999Z" fill="#040114"/>
</svg>
