<svg viewBox="0 0 207 60" fill="none" xmlns="http://www.w3.org/2000/svg">
<path d="M203.6 40.29C203.82 40.29 204.01 40.38 204.01 40.64C204.01 40.89 203.82 41 203.6 41H202.95V40.29H203.6ZM204.83 40.6C204.83 39.95 204.36 39.54 203.65 39.54H202.14V42.93H202.96V41.67H203.23L203.99 42.93L204.98 42.91L204.1 41.6C204.55 41.47 204.83 41.11 204.83 40.6ZM203.42 44.49C205.28 44.49 206.6 43.12 206.6 41.26C206.6 39.4 205.28 38.05 203.42 38.05C201.55 38.05 200.22 39.4 200.22 41.26C200.22 43.12 201.54 44.49 203.42 44.49ZM203.42 38.67C204.95 38.67 205.96 39.74 205.96 41.27C205.96 42.8 204.95 43.87 203.42 43.87C201.88 43.87 200.9 42.8 200.9 41.27C200.9 39.74 201.87 38.67 203.42 38.67Z" fill="#040114"/>
<path fill-rule="evenodd" clip-rule="evenodd" d="M128.81 23.0699C127.86 23.4599 126.98 24.0599 126.17 24.8699C125.36 25.6799 124.76 26.5599 124.36 27.5099C123.96 28.4799 123.75 29.5299 123.73 30.6799C123.71 31.8199 123.88 32.8999 124.25 33.8899C124.61 34.8599 125.17 35.7699 125.94 36.6099C126.7 37.4499 127.54 38.0799 128.46 38.5199C129.39 38.9599 130.41 39.2099 131.5 39.2699C132.67 39.3299 133.75 39.1499 134.72 38.7499C135.7 38.3499 136.61 37.7099 137.43 36.8499C138.28 35.9599 138.9 34.9999 139.31 33.9699C139.71 32.9399 139.9 31.8299 139.88 30.6399C139.86 29.5199 139.64 28.4799 139.24 27.5199C138.84 26.5599 138.24 25.6699 137.47 24.8599C136.71 24.0699 135.87 23.4699 134.96 23.0799C134.04 22.6899 133.04 22.4899 131.95 22.4899C130.81 22.4899 129.77 22.6799 128.81 23.0699ZM145.23 30.8799V31.0499V42.9499V44.0199H144.16H141.04H139.97V42.9499V41.6999C139.07 42.4299 138.11 43.0299 137.1 43.4799C135.35 44.2599 133.44 44.6199 131.38 44.5499C129.57 44.4799 127.9 44.0999 126.36 43.4099C124.82 42.7199 123.42 41.7099 122.16 40.3799C120.91 39.0599 119.96 37.5999 119.32 36.0199C118.68 34.4299 118.36 32.7299 118.36 30.9099C118.36 29.0199 118.7 27.2499 119.39 25.6099C120.07 23.9699 121.09 22.4699 122.43 21.1299C123.78 19.7599 125.27 18.7499 126.91 18.0999C128.55 17.4499 130.32 17.1599 132.21 17.2299C134.04 17.2999 135.73 17.6799 137.29 18.3799C138.85 19.0799 140.28 20.0999 141.55 21.4499C142.83 22.7699 143.78 24.2299 144.4 25.8199C145.01 27.3899 145.29 29.0799 145.23 30.8799ZM94.4 26.4999C94.13 26.9699 93.9 27.4699 93.72 27.9999H109.38C109.2 27.4899 108.98 27.0099 108.72 26.5599C108.26 25.7599 107.66 25.0499 106.93 24.4299C106.2 23.8199 105.4 23.3499 104.53 23.0299C103.65 22.7099 102.69 22.5399 101.65 22.5199C100.63 22.4999 99.6701 22.6499 98.7701 22.9499C97.8701 23.2599 97.03 23.7299 96.25 24.3499C95.48 24.9699 94.87 25.6899 94.4 26.4999ZM73.92 27.9199H79.44V44.0099H73.92V27.9199H79.44C79.44 25.0199 81.79 22.6799 84.68 22.6799H86.09V17.1599H84.68C78.74 17.1599 73.92 21.9799 73.92 27.9199ZM151.06 9.37988H154.27H155.34V10.4499V42.9499V44.0199H154.27H151.06H149.99V42.9499V10.4499V9.37988H151.06ZM175.62 33.9399C175.98 34.9099 176.54 35.8199 177.31 36.6599C178.08 37.5099 178.92 38.1399 179.83 38.5699C180.74 38.9999 181.75 39.2299 182.84 39.2699H182.86C184.04 39.3299 185.11 39.1599 186.09 38.7599C187.07 38.3599 187.97 37.7299 188.79 36.8599L188.8 36.8499C189.65 35.9599 190.27 35.0099 190.68 33.9899C191.08 32.9699 191.27 31.8799 191.25 30.6999C191.21 29.5699 190.99 28.5299 190.58 27.5599C190.17 26.5999 189.58 25.7099 188.8 24.8899C188.04 24.0899 187.2 23.4999 186.3 23.0999C185.4 22.7099 184.41 22.5199 183.33 22.5199H183.31C182.18 22.4999 181.13 22.6999 180.18 23.0999C179.23 23.4999 178.35 24.1099 177.54 24.9199C176.73 25.7299 176.13 26.6099 175.73 27.5599C175.33 28.5299 175.12 29.5799 175.1 30.7299C175.08 31.8699 175.25 32.9399 175.62 33.9399ZM195.63 25.8099C196.27 27.3999 196.59 29.0999 196.59 30.9199C196.59 32.7899 196.24 34.5399 195.55 36.1799C194.86 37.8099 193.83 39.3099 192.48 40.6699C191.13 42.0199 189.63 43.0299 187.99 43.6799C186.36 44.3299 184.61 44.6299 182.74 44.5599C180.93 44.5099 179.24 44.1399 177.69 43.4499C176.14 42.7599 174.73 41.7499 173.48 40.4299C172.22 39.0999 171.28 37.6499 170.66 36.0699C170.03 34.4899 169.72 32.7799 169.72 30.9599C169.72 29.0699 170.06 27.2999 170.75 25.6599C171.43 24.0199 172.45 22.5199 173.79 21.1799C175.14 19.8099 176.63 18.7899 178.26 18.1299C179.89 17.4699 181.65 17.1699 183.53 17.2399C185.35 17.3099 187.05 17.6899 188.61 18.4099C190.15 19.1099 191.55 20.1299 192.8 21.4699C194.04 22.7799 194.99 24.2299 195.63 25.8099ZM161.41 17.8199H164.58H165.65V18.8899V42.9499V44.0199H164.58H161.41H160.34V42.9499V18.8899V17.8199H161.41ZM161.41 9.37988H164.58H165.65V10.4499V13.7899H160.35V10.4499V9.37988H161.41ZM106.08 38.0799C106.83 37.5999 107.48 36.9599 108.05 36.1599H114.06C113.62 37.2499 113.06 38.2499 112.38 39.1599C111.55 40.2799 110.56 41.2499 109.39 42.0799C108.23 42.8999 107 43.5199 105.71 43.9399C104.43 44.3599 103.08 44.5699 101.66 44.5999C99.87 44.6199 98.18 44.3099 96.59 43.6599C95 43.0099 93.53 42.0299 92.17 40.7199L92.16 40.7099C90.8 39.3699 89.76 37.9099 89.06 36.3199C88.36 34.7299 87.99 33.0099 87.96 31.1599C87.91 29.2199 88.24 27.3899 88.93 25.6999C89.62 24.0199 90.67 22.4699 92.08 21.0899C93.51 19.6799 95.07 18.6399 96.75 17.9799C98.44 17.3199 100.26 17.0399 102.21 17.1499C103.95 17.2599 105.58 17.6799 107.09 18.3899C108.6 19.0999 109.99 20.1199 111.26 21.4399C112.49 22.7299 113.41 24.1199 114.03 25.5899C114.66 27.0799 114.97 28.6399 114.97 30.2799V32.0099V33.0799H113.9H105.55H93.54C93.69 33.7099 93.91 34.3099 94.19 34.8599C94.64 35.7299 95.26 36.5199 96.05 37.1999C96.86 37.8999 97.74 38.4299 98.67 38.7699C99.61 39.1199 100.63 39.2899 101.71 39.2699H101.72C103.46 39.2499 104.9 38.8499 106.08 38.0799Z" fill="#040114"/>
<path fill-rule="evenodd" clip-rule="evenodd" d="M59.99 29.8701C59.99 13.5401 46.76 0.310059 30.43 0.310059C14.1 0.310059 0.869995 13.5401 0.869995 29.8701C0.869995 46.2001 14.1 59.4301 30.43 59.4301C46.76 59.4301 59.99 46.1901 59.99 29.8701ZM42.6 14.8301H29.65C29.09 14.8301 28.63 15.2901 28.63 15.8501V27.3401C28.63 28.7001 27.39 29.8601 25.95 29.8601H16.07C15.65 29.8601 15.29 30.1001 15.12 30.4901C14.96 30.8801 15.04 31.3101 15.34 31.6101L28.33 44.6001C28.53 44.8001 28.77 44.9001 29.05 44.9001H41.19C41.61 44.9001 41.97 44.6601 42.14 44.2701C42.3 43.8801 42.22 43.4501 41.92 43.1501L29.17 30.4101L28.93 30.1701L28.62 29.8701H28.71C36.57 29.8201 43.05 23.6701 43.62 15.9401C43.64 15.6501 43.55 15.3801 43.35 15.1701C43.15 14.9401 42.9 14.8301 42.6 14.8301ZM30.43 2.90006C45.33 2.90006 57.4 14.9701 57.4 29.8701C57.4 44.7601 45.33 56.8401 30.43 56.8401C15.54 56.8401 3.46 44.7701 3.46 29.8701C3.46 14.9701 15.53 2.90006 30.43 2.90006Z" fill="#040114"/>
</svg>
